<?xml version="1.0" encoding="UTF-8" standalone="no"?>
<!-- Created with Inkscape (http://www.inkscape.org/) -->

<svg
   width="210mm"
   height="297mm"
   viewBox="0 0 210 297"
   version="1.1"
   id="svg1"
   xml:space="preserve"
   inkscape:export-filename="bitmap.png"
   inkscape:export-xdpi="96"
   inkscape:export-ydpi="96"
   inkscape:version="1.4 (86a8ad7, 2024-10-11)"
   sodipodi:docname="dibujo.svg"
   xmlns:inkscape="http://www.inkscape.org/namespaces/inkscape"
   xmlns:sodipodi="http://sodipodi.sourceforge.net/DTD/sodipodi-0.dtd"
   xmlns="http://www.w3.org/2000/svg"
   xmlns:svg="http://www.w3.org/2000/svg"><sodipodi:namedview
     id="namedview1"
     pagecolor="#ffffff"
     bordercolor="#000000"
     borderopacity="0.25"
     inkscape:showpageshadow="2"
     inkscape:pageopacity="0.0"
     inkscape:pagecheckerboard="0"
     inkscape:deskcolor="#d1d1d1"
     inkscape:document-units="mm"
     inkscape:zoom="0.51339147"
     inkscape:cx="759.65423"
     inkscape:cy="651.54959"
     inkscape:window-width="1920"
     inkscape:window-height="1017"
     inkscape:window-x="-8"
     inkscape:window-y="487"
     inkscape:window-maximized="1"
     inkscape:current-layer="layer1" /><defs
     id="defs1" /><g
     inkscape:label="Capa 1"
     inkscape:groupmode="layer"
     id="layer1"><path
       style="fill:#000000;stroke:none;stroke-width:2"
       d="m 17.473207,146.04752 5.820834,-2.11666 c -2.833846,10.08428 -0.938322,26.52032 8.995834,32.27916 l 1.058332,-4.7625 c 4.70531,3.38434 8.022614,8.54358 12.7,12.10184 1.341868,1.0208 5.126166,2.82352 5.41335,4.63552 0.339828,2.14414 -6.74308,7.36213 -8.191878,9.04075 -3.327906,3.85582 -5.63533,10.57344 -9.566244,13.5901 -2.114624,1.62284 -6.73516,1.8445 -9.35106,2.65524 -8.066102,2.49992 -19.8393141,13.99326 -13.031034,22.9517 21.274934,27.99384 155.969819,23.18012 171.620559,-1.47514 4.76762,-8.86492 -3.95202,-16.98614 -11.4812,-19.88172 -2.87166,-1.10436 -6.33426,-1.35212 -8.98766,-2.9194 -4.97576,-2.93898 -8.22494,-10.96746 -12.15246,-15.29112 -1.46388,-1.61154 -4.6112,-3.6765 -5.2088,-5.80777 -0.63144,-2.25196 4.74746,-4.61878 6.24058,-5.68814 5.7821,-4.14102 11.00424,-9.92146 13.75834,-16.55768 h 1.05832 l 1.5875,4.7625 c 6.35862,-4.97864 5.67506,-14.99282 4.88132,-22.1756 -0.42932,-3.88522 4.22112,-3.9897 2.47354,-9.04524 -2.26498,-6.55226 -8.02286,-9.7634 -11.04432,-15.3932 -1.10372,-2.05652 -0.31098,-4.66088 -0.1046,-6.8318 0.37088,-3.89992 -1.92676,-9.49922 -0.60184,-13.1083 0.91706,-2.49798 6.94914,-2.0125 9.15834,-2.26408 7.05454,-0.80336 13.88008,-4.16846 19.04798,-9.017057 5.96474,-5.59622 10.02018,-16.59156 5.82286,-24.2939 l 1.05834,0.52918 v -0.52918 c -1.25162,-2.41268 -3.31974,-4.08352 -4.77884,-6.35 -4.66238,-7.24224 -6.9042,-13.054476 -14.80034,-17.751978 -16.4944,-9.812676 -43.71215,-4.209706 -52.38749,14.047818 -4.79594,-1.61982 -9.74736,-3.0989 -14.81666,-3.61392 -4.99196,-0.50716 -10.76692,0.21718 -15.345841,-1.966 -8.26954,-3.942834 -9.24094,-14.566442 -17.4625,-19.35625 -21.588254,-12.57714 -50.006222,2.667084 -52.332364,27.58201 -0.63625,6.81472 -0.06032,14.3732 2.842228,20.6375 1.690676,3.64882 5.843062,7.7598 6.525982,11.64166 0.480478,2.73114 -1.39339,6.244777 -1.788392,8.995837 -0.664478,4.62786 0.12272,9.18916 -0.25805,13.7563 -0.314968,3.7779 -5.323932,5.34596 -7.858694,7.6427 -4.79642,4.346 -9.824934,12.62528 -8.514032,19.34682 M 85.206529,53.972531 c -6.7241,1.248292 -18.347354,1.064292 -21.166654,8.995832 l 2.64584,0.52916 c 2.76506,-4.43138 15.870714,-6.4327 19.579154,-2.64582 l -19.579154,2.64582 1.05832,1.5875 c -10.89856,7.69878 -21.342586,12.32822 -28.045828,24.87084 -6.3406,-3.24162 -7.9375,-13.75894 -7.9375,-20.10834 0,-12.53036 4.729032,-24.307584 16.404168,-30.520578 13.34308,-7.1006 33.924254,-1.204158 37.041654,14.645586 m 94.191671,-1.5875 v 0.529166 l -15.875,-2.645834 v 0.529168 c 15.56842,0.678818 34.88082,18.409752 22.7313,33.845832 -7.70078,9.7839 -21.26046,11.13334 -32.78548,11.13334 3.68154,9.356077 7.10534,20.115397 3.70418,30.162497 l -10.58334,-0.52918 c 8.05268,3.89748 18.37974,5.34802 21.69584,15.34584 -5.11708,-1.85872 -8.44704,-3.41852 -13.75834,-1.05834 v 0.52918 c 6.0368,4.24844 13.04486,10.6456 13.22916,18.52082 h -0.52916 c -1.37528,-3.54478 -2.73376,-7.27278 -6.35,-8.99582 -0.2702,13.0884 -6.78664,24.39682 -18.52084,30.62838 -5.24741,2.78668 -11.98201,3.80532 -16.87615,6.98776 -3.8453,2.50042 -4.86112,9.25827 -8.53158,12.55671 -9.16764,8.23844 -27.077841,9.69584 -38.621421,6.65704 -6.637334,-1.74726 -12.854234,-4.83872 -15.968094,-11.32156 -1.3348,-2.77896 -0.7517,-7.59699 -3.24236,-9.60831 -8.320734,-6.71934 -20.911494,-10.26522 -23.122874,-22.67086 2.495996,1.51014 3.53688,5.1916 6.35776,6.17402 1.714568,0.59714 3.702116,-0.5748 3.430192,-2.48006 -1.169486,-8.1941 -7.481956,-14.01942 -2.908786,-22.74396 -4.438004,2.07552 -6.058892,6.46298 -5.291666,11.1125 l -5.291666,-8.46666 c -3.879996,4.72228 -4.233334,10.50758 -4.233334,16.40416 h -0.529166 c -0.82256,-10.40852 0.25604,-15.80372 4.233332,-25.4 l -8.466666,1.5875 c 1.392624,-7.71696 9.022172,-12.69514 16.404166,-12.7 -6.55677,-17.12928 2.59474,-40.258237 16.933328,-50.573377 5.60112,-4.02942 13.07246,-8.32838 20.10834,-8.94278 2.381934,-0.20798 7.170754,0.67294 8.402574,3.04068 0.87598,1.6838 -0.42474,4.83988 -0.46508,6.73382 l 15.345841,-10.05418 -11.112501,-3.175 v -0.52916 c 14.139141,-0.60718 25.738501,-1.3464 39.158321,4.23334 8.2544,-19.155814 34.18305,-25.74212 51.32917,-14.816672 m 17.99166,17.991672 v 1.05832 h -1.05834 v -1.05832 h 1.05834 m 0.35278,2.9986 -0.1764,0.35278 0.1764,-0.35278 M 78.856529,92.072523 c 4.73318,-11.64006 -16.178354,-10.84806 -22.222954,-6.46188 -1.85488,1.34598 -6.770814,6.44478 -3.535934,8.73086 2.100894,1.48468 6.722834,-2.80794 8.825574,-3.60904 6.33908,-2.41504 10.84354,0.25786 16.933314,1.34006 m 24.341681,2.11668 c 5.72838,-2.04918 10.22964,-4.17286 16.40416,-2.33306 2.50168,0.7454 8.69166,5.66918 10.94388,4.40438 3.5039,-1.9677 -1.93268,-7.39782 -3.5433,-8.6704 -5.38338,-4.25346 -12.61382,-5.1905 -19.04224,-3.37302 -2.10286,0.59454 -5.86322,1.7393 -6.4472,4.20066 -0.41172,1.7354 1.05412,4.18674 1.6847,5.77144 M 51.869041,138.6392 c -6.37264,3.03428 -9.791286,11.68372 -5.750198,17.98962 2.006886,3.13164 5.169202,3.75186 7.719872,6.08664 1.59972,1.4643 1.9062,3.81022 3.21624,5.50152 1.26912,1.6385 3.28788,2.30876 4.59836,3.8724 4.23996,5.05898 4.6684,12.68458 9.36332,17.8708 8.675554,9.58349 29.086275,10.07105 39.060735,2.37391 6.05436,-4.67207 7.16246,-11.21407 11.15782,-17.10605 1.30956,-1.9312 4.0017,-2.4271 5.72774,-3.95486 3.27692,-2.90046 5.28954,-7.18808 5.8686,-11.46732 11.22641,-0.36446 2.69696,-16.36214 -3.70416,-18.52084 3.08876,-6.20898 6.5762,-11.19716 6.5762,-18.52082 0,-3.78074 -0.8497,-8.24128 -2.48168,-11.64168 -6.47582,-13.493037 -24.88538,-17.556237 -35.204301,-5.81308 -5.28218,6.01124 -6.1639,15.33728 -3.81522,22.74642 l -7.9375,-0.52916 c 0.92634,-4.49048 1.99658,-8.61 1.27514,-13.22918 -2.12558,-13.60978 -18.305274,-22.458737 -30.379294,-13.86978 -12.370756,8.80002 -13.214786,26.19752 -5.291674,38.21146 m 24.870834,-7.40834 c -4.86118,-1.72554 -10.63644,-1.70316 -8.99584,5.29166 -3.11862,0 -11.027,2.01936 -13.47822,0.50672 -2.504712,-1.54562 -3.59234,-6.29918 -4.15944,-8.97338 -2.023682,-9.54282 0.9458,-21.6129 10.22934,-26.25826 14.66146,-7.336417 27.345834,7.29774 24.062374,21.49576 -1.1188,4.8378 -4.83156,4.64044 -7.658214,7.9375 m 38.099995,6.87916 c 1.19854,-5.0955 -4.84328,-11.26632 -8.37154,-5.1806 -0.99458,1.71552 -0.32642,3.87808 -0.0952,5.70978 -4.22528,0.69558 -8.324081,-8.02652 -9.461721,-11.64168 -3.33916,-10.61108 1.56086,-24.857 14.224221,-25.87976 14.3208,-1.156617 23.31034,11.97006 21.3892,25.3506 -0.61342,4.27234 -2.32936,10.5526 -6.5803,12.68326 -3.0274,1.5174 -7.94548,-0.61616 -11.10474,-1.0416 m -30.162501,-6.72034 c 3.86366,-0.55848 9.61512,-0.3458 12.49136,2.66708 4.681001,4.90332 -0.80814,11.4091 -6.14136,12.346 -3.77922,0.66388 -8.26076,-0.145 -10.9059,-3.09906 -4.434834,-4.95292 -1.6737,-11.01358 4.5559,-11.91402 m -9.524994,8.83702 c 0.85966,3.6584 3.568934,6.41948 6.879154,8.10654 2.02694,1.03302 5.80972,1.17012 5.6918,4.08756 -0.1758,4.34994 -4.07374,6.948 -7.80846,8.16818 -7.271294,2.37562 -18.100654,2.54304 -24.870834,-1.318 -3.857138,-2.19974 -7.62595,-6.41894 -6.349994,-11.10678 l 6.349994,2.11666 c -1.53878,-1.18602 -3.854418,-2.31216 -4.941334,-3.94998 -1.661946,-2.5043 2.474138,-5.08704 4.412174,-5.77958 6.37792,-2.2791 14.07588,-0.46006 20.6375,-0.3246 m 71.437485,-0.52918 c 1.25346,3.9542 2.02062,9.4054 -0.2209,13.17936 -0.93778,1.57888 -2.94418,2.25946 -3.69518,3.89322 -0.92804,2.01886 -0.85838,4.6028 -1.70142,6.73992 -1.09402,2.77334 -3.16289,5.06696 -3.90749,7.9375 7.33777,0.63986 13.47807,1.26006 18.28809,-5.84166 5.80496,-8.5707 4.09436,-25.31232 -8.7631,-25.90834 m -23.81249,13.75834 c 3.7813,0.3339 6.8794,-1.9454 10.05416,-3.70416 -0.31294,14.69046 -20.18958,15.78468 -30.69166,12.34476 -4.392141,-1.43864 -10.403721,-4.43846 -10.907121,-9.68872 -0.30448,-3.17564 5.1597,-4.25246 7.18172,-6.00498 1.694941,-1.46906 2.768221,-3.86418 4.833141,-4.8458 5.21336,-2.47838 14.20744,-0.86674 19.52976,0.51038 2.20404,0.57028 8.93116,2.38276 8.50832,5.52072 -0.38294,2.84186 -6.4887,4.32256 -8.50832,5.8678 m -32.279161,25.92916 h 1.05832 l 1.5875,-4.7625 c 3.3063,-0.6138 6.24358,-0.3603 9.525001,0.35034 8.95106,1.93846 15.14116,8.82876 5.28964,15.46914 -7.19704,4.85113 -18.352981,4.88679 -26.456301,2.46863 -4.761094,-1.42078 -9.112454,-4.93007 -8.794934,-10.35061 0.35182,-6.00612 10.627294,-11.52274 16.035034,-7.9228 1.40886,0.93788 1.39394,3.2506 1.75574,4.7478 m 64.029151,32.27919 -12.05978,-1.75574 -4.34437,-4.59426 1.05831,4.23332 c -8.41911,1.82414 -20.53979,-0.50512 -29.10415,-1.5875 3.45156,-2.21308 7.0319,-3.81992 9.89534,-6.92652 3.8771,-4.20634 6.90154,-13.53089 14.44632,-11.87319 3.27922,0.72048 6.20573,4.36795 8.46667,6.62889 2.01958,2.01958 3.90108,4.06902 5.6228,6.35 2.24252,2.97094 4.87606,5.93868 6.01886,9.525 M 57.689795,189.4392 c 1.39402,4.94899 2.67046,9.41393 6.37286,13.22099 2.32226,2.3879 6.13512,3.63304 7.91464,6.35818 l -17.99166,0.52916 0.52916,-5.82082 -3.175,5.82082 -11.641668,1.5875 c 2.309752,-7.85222 10.707762,-18.06752 17.991668,-21.69583 m 21.166654,21.84693 c 21.11166,-2.491 44.072261,0.30408 65.087491,2.40534 6.55386,0.65528 18.07462,0.36254 23.22576,4.99888 3.66038,3.29458 0.66208,6.50054 -2.58826,8.52138 -6.23596,3.87712 -14.04552,5.18634 -21.16666,6.51334 -30.24227,5.63544 -60.715091,4.1237 -91.016653,0.71984 -7.14446,-0.80256 -15.874102,-2.1767 -22.225,-5.6702 -2.35412,-1.29494 -5.539754,-2.94584 -5.71345,-5.9984 -0.337366,-5.92896 8.475798,-7.1275 12.592618,-7.9375 14.012904,-2.7572 27.80552,-1.90098 41.804154,-3.55268 m -13.758314,1.66098 c -1.61168,0.21418 -13.572442,1.3697 -9.73242,5.0626 1.2813,1.2322 3.83472,1.24176 5.49908,1.4409 5.47468,0.65512 12.06026,0.54616 17.462094,-0.57896 3.699,-0.77044 4.33452,-3.56708 0.52712,-4.77598 -4.103034,-1.3028 -9.490694,-1.71546 -13.755874,-1.14856 m 47.095815,4.53792 c 4.54212,1.45238 20.20254,4.57056 22.225,-1.5875 -6.0672,-2.26148 -18.64292,-5.92948 -22.225,1.5875 m -86.783323,-0.52916 -0.529166,0.52916 0.529166,-0.52916 m 68.262502,0.3148 c -7.10686,1.64432 -5.05352,4.40526 1.05832,5.34926 5.403581,0.83458 12.785861,1.84558 17.960241,-0.44874 4.4198,-1.95978 -1.18956,-4.00842 -3.14356,-4.59142 -4.37632,-1.30578 -11.415441,-1.34088 -15.875001,-0.3091 m 56.620811,-0.0428 c -2.4251,0.1552 -14.17261,0.1614 -12.85229,4.4297 1.30961,4.23366 13.67201,3.42774 17.08563,3.1885 1.90368,-0.1334 10.12216,-1.10694 8.06898,-4.59674 -1.63432,-2.77784 -9.4302,-3.20542 -12.30232,-3.02146 m -126.470813,0.25722 c -0.797762,1.80422 -2.668344,3.70566 -2.366554,5.8 0.426856,2.96232 4.177216,4.99024 6.599888,6.10054 6.67167,3.0576 13.981462,4.61422 21.166666,5.95312 30.046742,5.59898 60.916583,4.60896 91.016653,0.36258 8.18104,-1.15416 16.7433,-3.0013 24.2943,-6.43982 4.37374,-1.9917 7.61142,-5.36046 5.8682,-10.18892 8.0979,1.56684 12.54752,11.17152 6.252,17.30328 -6.2883,6.12476 -16.61322,7.81922 -24.77284,9.90634 -16.51959,4.22552 -33.86321,4.87012 -50.79999,5.07158 -16.865121,0.20064 -34.043715,-0.0212 -50.799989,-2.81936 -10.86304,-1.81398 -24.711816,-4.3552 -33.316264,-11.7176 -8.0438241,-6.88272 -1.531956,-16.91476 6.85793,-19.33174 m 11.641668,1.85984 c -4.565816,0.93664 -6.947494,4.68114 -1.058334,6.2316 5.470766,1.44032 13.14093,1.36444 18.518386,-0.4916 4.112528,-1.41946 2.093468,-3.9757 -1.055886,-4.72698 -5.13809,-1.22566 -11.156562,-2.08948 -16.404166,-1.01302 m 59.795834,5.5485 c -4.95706,-2.81776 -11.33342,-3.10008 -16.93334,-2.55602 -1.562794,0.1518 -6.124054,0.49394 -5.423154,3.06436 0.5588,2.04922 3.73436,2.19746 5.423154,2.44006 4.5761,0.65732 14.44034,1.80576 16.93334,-2.9484 m 29.633321,-0.3046 c -4.73522,0.62386 -10.35994,4.12684 -2.64582,6.16544 5.42506,1.43368 12.52164,1.58222 17.98961,0.28094 3.3615,-0.8 4.06648,-3.72944 0.52304,-4.82416 -5.01165,-1.54836 -10.63873,-2.31104 -15.86683,-1.62222 m -47.095821,6.6546 v -1.5875 c -7.309054,-3.2528 -14.383614,-3.17552 -22.224994,-3.175 -1.89846,1.2e-4 -7.053686,-0.61198 -7.449988,2.17752 -0.41527,2.92294 5.026408,3.51232 6.920808,3.84704 7.2251,1.27668 15.74776,0.7115 22.754174,-1.26206 m 8.46666,2.11666 c 3.91042,1.50592 7.45576,2.11642 11.64166,2.11668 h 7.937501 c 1.54008,0 12.64892,0.028 10.5376,-3.43222 -1.27402,-2.088 -5.22876,-2.17478 -7.3626,-2.41518 -5.26268,-0.59284 -20.789641,-2.88592 -22.754161,3.73072"
       id="path2"
       sodipodi:nodetypes="ccccsssssssssssscccssscssscccsscsssssssssccccccccsscccccscccccccccsssssscssccccccccssscccccccccccccccsssccsssssccssssssssccsssccsscccssssccscssssccsscccssssccssccssscscccssssssccccsssssccccccssssccscccccccssscssscccscssccccccccsssccsssccssssscsssssccsssccsssccssscccssccccsssc"
       inkscape:export-filename="laly2.png"
       inkscape:export-xdpi="96"
       inkscape:export-ydpi="96" /><path
       style="fill:#f9974e;fill-opacity:1;stroke-width:0.728832"
       d="m 82.863051,207.15775 c -2.310379,-0.36282 -6.133026,-1.44017 -8.494771,-2.39412 -7.451466,-3.00977 -11.167343,-7.03166 -12.737565,-13.78653 -0.503005,-2.16386 -1.173454,-4.3532 -1.489885,-4.8652 -0.316436,-0.512 -3.899519,-3.06733 -7.962408,-5.67851 -8.565583,-5.50502 -11.707267,-8.27645 -13.646033,-12.03781 -1.939772,-3.76332 -1.740196,-4.21528 0.6154,-1.39366 1.600517,1.91716 2.452957,2.35632 4.190798,2.15898 3.09589,-0.35156 3.157284,-2.76596 0.284295,-11.18027 -2.144135,-6.27967 -2.28727,-7.22806 -1.56636,-10.37845 0.436378,-1.90698 0.652854,-3.60779 0.481061,-3.77959 -0.86459,-0.86459 -4.743419,4.15581 -5.143395,6.65714 l -0.442081,2.76462 -2.3681,-3.75581 -2.368101,-3.7558 -1.313751,2.00504 c -0.722561,1.10277 -1.749071,3.53057 -2.281121,5.39512 l -0.967375,3.39008 0.427143,-4.23274 c 0.234929,-2.328 1.221126,-6.56714 2.191544,-9.42029 0.970423,-2.85316 1.7644,-5.30896 1.7644,-5.45734 0,-0.28605 -4.546605,0.39798 -6.813666,1.02511 -1.125368,0.31131 -1.26156,0.0906 -0.826452,-1.33911 1.422659,-4.67471 8.73135,-10.09342 13.613897,-10.09342 1.12387,0 2.043403,-0.13749 2.043403,-0.30555 0,-0.16805 -0.53259,-2.38188 -1.183534,-4.91963 -2.275798,-8.87236 0.200046,-21.856349 6.084512,-31.908833 5.562563,-9.502562 16.198522,-18.01869 26.597647,-21.296523 5.058701,-1.594512 9.026387,-1.440064 11.933152,0.464524 1.653006,1.083087 1.785086,1.518263 1.347147,4.438634 -0.267049,1.780794 -0.202321,3.237219 0.143839,3.236494 1.130337,-0.0021 15.714449,-10.028555 15.087359,-10.372159 -0.335574,-0.183874 -2.250004,-0.761201 -4.254297,-1.282959 -7.118233,-1.853009 -5.435483,-2.36139 6.559507,-1.981708 8.9106,0.282051 13.03673,0.748861 17.49203,1.978951 9.33043,2.5761 8.54086,2.658152 10.50718,-1.091851 5.25835,-10.02829 19.35323,-17.057115 32.49404,-16.204109 5.34172,0.346747 14.85591,3.045253 13.94573,3.955431 -0.34638,0.346387 -9.55047,-0.929598 -12.30585,-1.705986 -0.70151,-0.197665 -1.27547,-0.04657 -1.27547,0.335804 0,0.382354 1.41627,0.907573 3.14727,1.167151 7.84966,1.177131 17.78117,8.274447 21.21155,15.158349 3.58409,7.192317 2.07827,14.310519 -4.25819,20.129129 -5.66646,5.203365 -12.24172,7.481131 -24.56162,8.508503 l -5.55423,0.463174 2.16281,6.688364 c 2.35382,7.27907 3.32484,16.08142 2.22524,20.1718 l -0.68576,2.55092 -5.22513,-0.0995 c -2.87382,-0.0547 -5.22493,0.10925 -5.2247,0.36441 2.4e-4,0.25516 3.17842,1.75917 7.06264,3.34223 4.89551,1.99522 8.02588,3.80166 10.20325,5.88794 3.85678,3.69546 4.10917,5.0785 0.77234,4.23239 -3.52434,-0.89363 -8.40172,-0.70005 -9.45719,0.37536 -0.75601,0.77032 -0.27213,1.50327 2.60225,3.9417 4.15707,3.52657 8.507,9.00765 8.46563,10.66703 -0.0183,0.73231 -0.43274,0.42702 -1.10692,-0.81532 -0.94842,-1.74765 -3.0803,-3.48028 -4.28224,-3.48028 -0.22679,0 -0.44502,1.2299 -0.48498,2.73312 -0.04,1.50323 -0.33525,3.55307 -0.65618,4.55522 -0.46749,1.45971 -0.59879,1.09734 -0.66026,-1.82209 -0.15506,-7.36599 -2.97496,-12.64049 -7.84611,-14.67578 -4.34897,-1.81712 -4.51782,-1.62159 -4.08265,4.72742 l 0.39217,5.72158 -2.61551,2.89505 c -1.67972,1.85924 -2.89634,4.14821 -3.40044,6.3976 -0.43172,1.92641 -1.59407,4.88323 -2.58301,6.57072 -2.88743,4.92704 -2.58313,5.49102 2.96277,5.49102 5.10541,0 9.14441,-1.30162 11.8102,-3.806 3.30453,-3.10444 1.54243,0.19474 -2.34887,4.39781 -4.24073,4.5805 -10.65666,8.42207 -17.86633,10.69757 -7.30389,2.30523 -9.71983,4.16782 -12.65768,9.75857 -2.99605,5.70147 -5.69864,8.31751 -11.02943,10.67615 -6.93074,3.06656 -18.77861,4.49952 -26.794559,3.24073 z M 102.9145,196.24817 c 6.63785,-2.05023 10.55558,-5.72558 14.9108,-13.98833 1.92151,-3.64549 4.25872,-7.1559 5.1938,-7.80091 5.85328,-4.03758 8.66841,-7.64556 9.87167,-12.6519 0.28442,-1.18339 0.97492,-2.00429 1.68591,-2.00429 3.72436,0 4.95777,-5.20142 2.50599,-10.5681 -1.35471,-2.96534 -4.85409,-7.16587 -6.42693,-7.71469 -0.58406,-0.20379 -0.055,-1.96706 1.62146,-5.40433 4.26864,-8.7519 4.79394,-14.65201 2.061,-23.1489 -1.52558,-4.74311 -7.18396,-10.80939 -12.09355,-12.96532 -7.98775,-3.50766 -17.57922,-1.84624 -23.495265,4.06981 -4.508881,4.50888 -5.82749,8.27245 -5.824177,16.62339 l 0.0026,7.17283 -2.904791,-0.46449 c -1.597634,-0.25547 -2.980976,-0.54068 -3.074088,-0.6338 -0.09311,-0.0931 0.132731,-1.47199 0.501878,-3.06416 3.257573,-14.05026 -6.390966,-26.871493 -20.162195,-26.792129 -7.632991,0.04397 -14.501378,4.922419 -18.626555,13.229939 -1.443932,2.90787 -1.678316,4.49672 -1.681131,11.39614 -0.0032,7.24507 0.191633,8.43336 2.020486,12.33856 l 2.023755,4.32138 -2.130234,1.94567 c -3.012091,2.75112 -4.63413,6.26228 -4.680458,10.13161 -0.0541,4.51829 1.752123,7.63535 6.054232,10.44795 1.984053,1.29712 4.11778,3.41866 4.741609,4.71454 0.623829,1.29588 2.710508,3.91969 4.637066,5.83067 2.592086,2.57115 4.145402,5.05597 5.974234,9.55693 3.75467,9.24066 7.769918,13.13645 16.340089,15.85395 4.675167,1.48244 15.475257,1.25975 20.952595,-0.43202 z m 27.81969,-99.567581 c 3.26426,-1.252611 -0.18803,-7.616968 -5.97797,-11.020493 -3.10489,-1.825165 -4.10678,-2.020549 -10.36119,-2.020549 -8.96224,0 -12.63971,1.549976 -12.96925,5.46626 -0.11838,1.406863 0.25942,3.198595 0.84238,3.995044 1.04946,1.433766 1.08499,1.43401 4.95208,0.03424 5.94653,-2.152486 10.21527,-1.812491 16.62908,1.324451 2.99513,1.464897 5.51011,2.663449 5.58885,2.663449 0.0787,0 0.66195,-0.199077 1.29602,-0.442394 z M 59.279315,92.843792 c 5.136573,-2.879603 7.263178,-3.120294 14.101291,-1.595998 l 5.918264,1.319255 0.462481,-1.842675 C 80.44087,88.016956 78.882839,84.994123 76.136046,83.690685 73.279213,82.335029 65.49397,82.175681 60.729671,83.375344 c -5.405543,1.361133 -10.093833,6.968072 -8.751454,10.466255 0.638668,1.664346 3.169349,1.318488 7.301098,-0.997807 z"
       id="path3" /><path
       style="fill:#f9974e;fill-opacity:1;stroke-width:0.728832"
       d="M 37.234338,87.385645 C 32.990612,82.868403 31.030044,70.933224 33.0071,61.651873 34.556813,54.376731 37.440512,48.906281 41.997933,44.596065 52.662837,34.50964 68.12541,34.102991 78.6724,43.631563 c 3.068685,2.772368 6.421432,8.802053 5.385149,9.684819 -0.350885,0.29891 -3.068611,0.938387 -6.039379,1.421061 -7.18557,1.167474 -11.336253,3.083359 -13.16437,6.076453 -1.373129,2.248154 -1.387311,2.436087 -0.201649,2.671244 2.98169,0.59137 2.118693,1.704234 -5.052817,6.515793 -9.011285,6.045909 -15.045748,11.403012 -17.856555,15.852192 -1.129299,1.787541 -2.242084,3.25066 -2.472848,3.25138 -0.23077,5.29e-4 -1.146784,-0.772769 -2.035593,-1.71886 z"
       id="path4" /><path
       style="fill:#f9974e;fill-opacity:1;stroke-width:0.728832"
       d="m 68.831181,62.157873 c 1.253252,-2.027809 12.557289,-3.736059 14.902381,-2.252027 1.118653,0.707908 0.774372,0.790765 -9.199616,2.214001 -6.389169,0.911696 -6.242118,0.910717 -5.702765,0.03805 z"
       id="path5" /><path
       style="fill:#f9974e;fill-opacity:1;stroke-width:0.728832"
       d="m 145.90544,210.13274 c -2.09998,-0.34172 -3.95896,-1.31755 -5.72705,-3.00631 l -2.61783,-2.50037 0.48463,2.29459 c 0.48124,2.27855 0.46014,2.29795 -3.01896,2.77493 -1.93849,0.26576 -7.84852,-0.0267 -13.22998,-0.65472 -5.34951,-0.62428 -9.89654,-1.13505 -10.10452,-1.13505 -0.20798,0 1.55471,-1.29071 3.9171,-2.86825 2.9649,-1.97989 5.37221,-4.44447 7.77248,-7.95738 4.03182,-5.90078 5.98076,-7.39523 9.64422,-7.39523 2.27741,0 3.36222,0.68758 7.76179,4.91963 5.0124,4.82156 10.4307,11.32213 12.14983,14.57669 0.81837,1.5493 0.73397,1.63484 -1.52814,1.54865 -1.3169,-0.0502 -3.7935,-0.3189 -5.50357,-0.59718 z"
       id="path6" /><path
       style="fill:#f6ad8a;fill-opacity:1;stroke-width:0.728832"
       d="m 42.315163,206.34137 c 2.30487,-4.39737 12.668393,-15.92759 14.315953,-15.92759 0.395738,0 1.463792,2.04985 2.373461,4.55522 1.634585,4.50189 4.680352,8.21233 9.838304,11.98527 l 2.186506,1.59939 -3.71947,0.0405 c -2.045706,0.0223 -5.714397,0.24901 -8.152644,0.50386 l -4.433178,0.46335 -0.228949,-3.19648 -0.22895,-3.19649 -1.627124,3.04351 c -1.554125,2.90697 -1.815697,3.06496 -5.830675,3.52166 -2.311951,0.26299 -4.814835,0.64923 -5.56196,0.85831 -1.157129,0.32383 -0.99877,-0.30598 1.068726,-4.2505 z"
       id="path7" /><path
       style="fill:#d69e6e;fill-opacity:1;stroke-width:0.515364"
       d="m 83.146266,145.09977 c -5.8733,-2.84727 -6.394233,-9.7431 -0.955395,-12.64702 2.588652,-1.38214 9.217078,-1.21648 12.337283,0.30833 5.870186,2.8687 5.090721,9.28559 -1.534557,12.63301 -2.346399,1.18552 -7.087023,1.04383 -9.847331,-0.29432 z"
       id="path8" /><path
       style="fill:#d69e6e;fill-opacity:1;stroke-width:0.515364"
       d="m 76.491503,250.84151 c -21.496829,-0.98147 -40.820525,-4.50576 -51.135618,-9.32621 -11.153828,-5.2124 -14.272027,-10.84456 -9.768374,-17.64383 1.37006,-2.06841 5.569135,-5.49312 6.73518,-5.49312 0.578088,0 0.547682,0.16615 -0.342863,1.8737 -0.423428,0.81188 -0.771302,2.09613 -0.773049,2.85387 -0.01265,5.47983 14.252935,10.77756 37.876062,14.06585 20.790926,2.89405 44.331669,2.97169 69.316419,0.2286 29.67947,-3.2585 43.30814,-8.38942 42.65488,-16.05869 -0.0905,-1.06293 -0.0913,-1.93261 -0.002,-1.93261 0.87891,0 4.41932,2.38179 5.68764,3.82632 5.64329,6.42736 1.75588,14.05866 -9.35549,18.36557 -9.78495,3.79278 -29.64201,7.65737 -44.6544,8.69067 -10.92907,0.75224 -35.425737,1.04356 -46.238755,0.54988 z"
       id="path9" /><path
       style="fill:#b03330;fill-opacity:1;stroke-width:0.515364"
       d="m 34.894416,225.3858 c -5.829808,-1.63234 -4.487212,-4.85362 2.487321,-5.96781 3.364627,-0.5375 4.745053,-0.46282 11.136143,0.60245 6.397286,1.06631 8.095774,3.11904 3.994071,4.82707 -2.939124,1.22392 -13.965603,1.56082 -17.617535,0.53829 z"
       id="path10" /><path
       style="fill:#b03330;fill-opacity:1;stroke-width:0.515364"
       d="m 59.340518,219.08615 c -2.180531,-0.40683 -4.035324,-1.2823 -4.32699,-2.04237 -0.718815,-1.8732 6.622658,-3.91314 14.118902,-3.92316 9.362964,-0.0125 15.022417,2.90653 9.920753,5.11694 -1.466247,0.63528 -3.922448,0.8677 -10.178436,0.96316 -4.535196,0.0692 -8.8256,0.0176 -9.534229,-0.11457 z"
       id="path11" /><path
       style="fill:#b03330;fill-opacity:1;stroke-width:0.515364"
       d="m 78.281113,227.6107 c -3.852058,-0.56417 -5.132081,-1.26439 -4.928208,-2.69591 0.264784,-1.85921 3.342544,-2.5411 10.209709,-2.262 5.572041,0.22647 10.822639,1.38785 10.822639,2.39385 0,0.77844 -1.855582,2.00461 -3.86523,2.55415 -2.351701,0.64308 -7.885101,0.64757 -12.23891,0.01 z"
       id="path12" /><path
       style="fill:#b03330;fill-opacity:1;stroke-width:0.515364"
       d="m 54.759877,232.2577 c -5.026131,-0.89037 -7.313797,-2.72515 -5.56624,-4.4643 0.808968,-0.80507 1.951767,-0.906 9.783175,-0.86401 6.477756,0.0347 9.769903,0.27974 12.217071,0.90922 6.959309,1.79015 7.882652,2.82873 3.47871,3.91287 -3.394249,0.83558 -16.213761,1.16148 -19.912716,0.50622 z"
       id="path13" /><path
       style="fill:#b03330;fill-opacity:1;stroke-width:0.515364"
       d="m 91.997441,234.65928 c -2.021919,-0.38581 -4.091421,-0.93382 -4.598887,-1.21781 -0.852392,-0.47703 -0.816758,-0.6145 0.467884,-1.80507 0.764804,-0.70879 2.415191,-1.54672 3.667532,-1.86206 4.283954,-1.07872 18.84779,-0.3896 22.58364,1.06859 0.79032,0.30848 1.67184,0.99978 1.95893,1.53622 0.44793,0.83696 0.24405,1.09293 -1.43694,1.80409 -2.71152,1.14714 -17.496072,1.45798 -22.642159,0.47604 z"
       id="path14" /><path
       style="fill:#b03330;fill-opacity:1;stroke-width:0.515364"
       d="m 99.435026,222.97466 c -9.100004,-0.96345 -12.195968,-2.96458 -7.497751,-4.84628 4.871402,-1.95107 15.501115,-1.5147 20.086505,0.82459 2.24486,1.14524 2.39926,1.68254 0.78573,2.73422 -1.0921,0.71181 -6.94495,1.91349 -8.63235,1.77235 -0.42517,-0.0356 -2.55913,-0.25376 -4.742134,-0.48488 z"
       id="path15" /><path
       style="fill:#b03330;fill-opacity:1;stroke-width:0.515364"
       d="m 118.83298,218.65497 c -6.57895,-1.19498 -7.01163,-1.61039 -3.88453,-3.72942 3.20886,-2.17443 8.65023,-2.09953 16.25908,0.22381 l 3.06596,0.93618 -1.17652,1.09609 c -2.34343,2.18324 -7.45107,2.71081 -14.26399,1.47334 z"
       id="path16" /><path
       style="fill:#b03330;fill-opacity:1;stroke-width:0.515364"
       d="m 140.91342,223.90237 c -2.46235,-0.93258 -3.6076,-2.24225 -2.92366,-3.3434 0.96535,-1.55425 3.28714,-2.29411 8.90942,-2.83908 4.08974,-0.39642 6.40118,-0.36906 9.18775,0.10874 6.24191,1.07028 8.25118,3.7397 4.13603,5.49493 -2.75905,1.17682 -16.63254,1.59268 -19.30954,0.57881 z"
       id="path17" /><path
       style="fill:#f9974e;fill-opacity:1;stroke-width:0.515364"
       d="m 124.89974,231.03882 c -3.95136,-0.75283 -6.49159,-2.0029 -6.15769,-3.03025 0.10928,-0.33625 1.22527,-1.19114 2.47997,-1.89977 2.03206,-1.14766 2.87244,-1.28841 7.6926,-1.28841 5.8141,0 12.33281,1.2916 13.47703,2.6703 0.92146,1.11029 -0.0303,2.34757 -2.42166,3.14815 -3.0301,1.01441 -10.76748,1.21977 -15.07025,0.39998 z"
       id="path18" /><path
       style="fill:#f9974e;fill-opacity:1;stroke-width:0.515364"
       d="m 42.01439,207.67696 c 0.684382,-1.35056 2.33109,-3.90127 3.659346,-5.66825 3.185346,-4.23744 10.428722,-11.611 11.036819,-11.23517 0.263879,0.16308 1.093692,1.86059 1.844029,3.77223 1.766438,4.50034 4.130919,7.70996 7.947411,10.78804 1.690931,1.36377 3.090482,2.65351 3.110114,2.8661 0.01963,0.21259 -1.761643,0.38817 -3.958384,0.39019 -2.196734,0.002 -5.559483,0.15151 -7.472775,0.33221 l -3.478704,0.32853 v -3.19711 c 0,-3.69821 -0.462841,-3.70734 -2.318311,-0.0457 -1.381432,2.72612 -1.525376,2.80624 -6.442869,3.58574 -5.483971,0.8693 -5.367332,0.92624 -3.926676,-1.91677 z"
       id="path19" /><path
       style="fill:#f5ad8a;fill-opacity:1;stroke-width:0.728832"
       d="m 84.08659,144.95862 c -2.853309,-1.29273 -5.404443,-4.50775 -5.404443,-6.81085 0,-0.99544 0.938932,-2.71879 2.130436,-3.9103 1.909032,-1.90903 2.609675,-2.12932 6.741721,-2.11969 5.174006,0.0121 7.442697,0.90575 9.568301,3.76922 1.282695,1.72795 1.343835,2.22231 0.520626,4.2097 -1.917631,4.62958 -8.700373,7.06212 -13.556641,4.86192 z"
       id="path20" /><path
       style="fill:#f5ad8a;fill-opacity:1;stroke-width:0.728832"
       d="m 84.763357,193.34474 c -11.768899,-2.50633 -15.460398,-11.55903 -6.97193,-17.09733 5.185786,-3.38346 10.891187,-2.90085 11.811852,0.99915 0.612204,2.59332 2.116958,2.68437 2.98967,0.18091 0.458946,-1.31654 1.431835,-2.35343 2.447285,-2.60829 2.049907,-0.51449 9.523676,0.79389 12.051746,2.10982 2.89689,1.50791 5.29876,4.48879 5.29876,6.57611 0,2.60259 -3.84951,6.42515 -8.47762,8.4183 -4.183141,1.80152 -13.957839,2.527 -19.149763,1.42133 z"
       id="path21" /><path
       style="fill:#ffffff;fill-opacity:1;stroke-width:1.94783"
       d="m 451.89688,524.96707 c -3.21393,-0.86348 -8.25394,-2.11591 -11.20003,-2.78318 -4.10067,-0.92877 -5.35654,-2.36088 -5.35654,-6.10825 0,-7.27518 -4.8209,-17.46758 -9.96681,-21.07191 -6.79017,-4.75602 -13.89666,-3.93774 -19.86015,2.28681 -4.30745,4.496 -5.234,7.25455 -5.234,15.58265 0,6.49544 -0.82582,10.11953 -2.30592,10.11953 -1.26826,0 -6.38129,-4.22812 -11.3623,-9.39583 -17.33047,-17.98006 -26.42087,-49.59339 -21.48083,-74.7031 4.65839,-23.67817 16.65719,-40.82924 34.79531,-49.7364 9.58441,-4.70664 13.28457,-5.41635 27.62337,-5.29828 19.61114,0.16149 32.44695,5.11919 47.19139,18.22721 17.90336,15.91633 29.09798,48.89329 25.07589,73.86818 -6.59612,40.95818 -21.42922,56.12967 -47.91938,49.01257 z"
       id="path22"
       transform="scale(0.26458333)" /><path
       style="fill:#ffffff;fill-opacity:1;stroke-width:1.94783"
       d="m 204.02633,514.33075 c -11.30877,-9.5157 -18.89077,-45.76355 -14.48537,-69.25128 3.96078,-21.11719 9.95052,-33.29281 22.6022,-45.9445 26.8216,-26.82159 60.36431,-27.57415 86.0455,-1.9305 14.94095,14.91912 20.67438,28.52999 20.98733,49.82283 0.31104,21.16273 -2.48045,27.36217 -16.9794,37.7084 -12.08178,8.62137 -12.18349,8.65197 -25.26947,7.60155 -11.84152,-0.95052 -13.61263,-0.60957 -17.93699,3.45295 -3.42129,3.21413 -4.79814,6.57451 -4.79814,11.71046 0,6.90083 -0.3277,7.25524 -7.81552,8.45259 -4.29853,0.68736 -14.17855,1.78763 -21.95559,2.44503 -13.3686,1.13006 -14.48131,0.90814 -20.39455,-4.06753 z"
       id="path23"
       transform="scale(0.26458333)" /><path
       style="fill:#ffffff;fill-opacity:1;stroke-width:1.94783"
       d="m 233.54849,609.83421 c -27.92398,-6.39299 -49.47843,-25.18712 -49.47843,-43.14209 0,-5.71772 0.3788,-5.74293 14.30381,-0.95202 6.0599,2.08491 10.99873,3.18057 10.97518,2.43479 -0.0236,-0.74578 -3.97363,-3.98554 -8.77795,-7.19946 -9.2607,-6.19508 -11.67427,-10.28461 -9.71432,-16.45985 1.3904,-4.38077 11.59985,-11.16603 20.90076,-13.89078 7.54276,-2.20969 34.89531,-2.54405 56.18617,-0.68682 l 15.086,1.31597 3.48194,7.72157 c 4.35202,9.65105 16.1557,19.91278 27.86938,24.22872 11.60493,4.27587 15.77639,7.95457 15.77639,13.91278 0,12.25164 -14.91789,25.19656 -35.52067,30.8229 -15.24318,4.1627 -46.89322,5.14414 -61.08826,1.89429 z"
       id="path24"
       transform="scale(0.26458333)" /><path
       style="fill:#ffffff;fill-opacity:1;stroke-width:1.94783"
       d="m 407.18877,616.39122 c -30.17649,-4.708 -55.04567,-19.32532 -59.78353,-35.13887 -2.00374,-6.68789 -1.83041,-8.10133 1.43681,-11.71687 2.04349,-2.26134 7.65979,-6.13431 12.48067,-8.6066 4.82088,-2.47229 12.7096,-8.58352 17.53048,-13.58051 4.82088,-4.997 11.10019,-10.31341 13.95401,-11.81424 8.14932,-4.28574 25.16123,-5.45368 42.85286,-2.94203 29.45205,4.18126 49.28483,10.9283 56.91103,19.36091 3.49297,3.86233 3.50751,4.29403 0.3092,9.17527 -1.88397,2.87531 -8.76936,7.57668 -15.69631,10.71751 -6.78705,3.07739 -12.97696,6.62574 -13.75536,7.88522 -2.51867,4.07529 14.88402,0.11631 26.97634,-6.13692 l 11.23844,-5.81168 -1.18776,5.36175 c -2.36874,10.69295 -9.99115,22.99074 -18.06882,29.15178 -15.69754,11.97292 -48.90505,18.1974 -75.19806,14.09528 z"
       id="path25"
       transform="scale(0.26458333)" /><path
       style="fill:#b03330;fill-opacity:1;stroke-width:1.94783"
       d="m 468.45344,871.50918 c -12.29823,-3.53545 -17.53048,-6.13131 -17.53048,-8.69733 0,-4.7216 12.93709,-10.71705 25.69645,-11.90854 23.25626,-2.1717 59.23086,5.05906 61.48716,12.35868 0.39449,1.27629 -2.18734,3.85864 -5.73742,5.73856 -5.00605,2.65092 -12.13769,3.53591 -31.77649,3.94326 -13.92699,0.28887 -28.38964,-0.35671 -32.13922,-1.43463 z"
       id="path26"
       transform="scale(0.26458333)" /><path
       style="fill:#ffeeaa;fill-opacity:1;stroke-width:1.94783"
       d="m 312.76827,894.83426 c -64.47509,-3.34566 -135.47662,-11.3382 -163.22124,-18.37359 -20.8249,-5.28071 -47.49803,-18.42359 -52.317316,-25.77875 -8.165501,-12.46213 0.889996,-26.53268 20.936906,-32.53205 16.36207,-4.89661 54.43259,-10.42827 86.99759,-12.64076 36.83166,-2.50237 39.92151,-2.36901 23.00408,0.99292 -21.4058,4.25388 -28.87285,12.30402 -18.01304,19.41964 10.29416,6.74499 71.8333,7.30454 90.30948,0.82115 7.932,-2.78339 10.74111,-10.79212 5.20525,-14.84005 -4.90472,-3.58641 -16.70464,-6.61393 -31.99967,-8.21019 l -12.66091,-1.32136 19.47832,-1.45177 c 10.71307,-0.79848 28.24355,-2.27069 38.95662,-3.27157 40.88853,-3.82007 89.87682,-2.00058 182.12224,6.76426 27.31833,2.5957 57.12015,5.28502 66.22626,5.97628 37.10999,2.81705 61.34058,10.97827 67.40338,22.70242 2.44315,4.72452 2.4493,6.1647 0.0462,10.8117 -10.3921,20.09613 -55.60236,34.79918 -139.2982,45.30185 -58.91442,7.39296 -115.61525,9.13564 -183.17599,5.62987 z m 121.59812,-7.71679 c 7.76089,-3.7699 8.64158,-10.28222 1.98075,-14.64657 -6.86595,-4.49874 -47.54262,-9.13278 -71.12876,-8.10326 -21.74052,0.94896 -33.85438,5.14706 -38.0033,13.17021 l -2.79268,5.40044 12.11972,3.08033 c 6.66582,1.69418 13.87274,3.48754 16.01536,3.98524 2.14261,0.4977 20.11136,0.69054 39.93054,0.42852 26.79324,-0.35422 37.53352,-1.20437 41.87837,-3.31491 z m -148.41045,-9.64162 c 7.92851,-1.93794 9.27211,-2.93275 8.76524,-6.48984 -0.47005,-3.2986 -3.52762,-5.1862 -14.23346,-8.78709 -12.29617,-4.13578 -41.53897,-6.98993 -81.80892,-7.98469 -2.86034,-0.0707 -2.08385,-1.00133 2.92175,-3.50191 8.43743,-4.21497 9.94643,-10.66903 3.48444,-14.90309 -11.40238,-7.47113 -56.89142,-11.6815 -74.21981,-6.86964 -15.14736,4.20622 -19.26881,15.10798 -8.1518,21.56254 7.67335,4.45516 34.39902,7.69578 51.04538,6.1895 l 13.23305,-1.19742 -3.58427,4.04491 c -7.41405,8.36689 0.81797,16.30016 20.5367,19.79143 13.40952,2.3742 69.94082,1.09574 82.0117,-1.8547 z m 247.0752,-4.40269 c 7.69041,-3.25355 11.12812,-9.69834 7.50309,-14.06625 -5.81543,-7.00714 -41.77493,-13.65339 -62.81404,-11.60966 -23.92616,2.32418 -37.83818,13.64221 -26.168,21.28881 13.14506,8.61296 64.90308,11.39979 81.47895,4.3871 z m -184.36933,-12.8397 c 4.28523,-1.94931 9.04975,-5.0647 10.58783,-6.92309 3.4984,-4.22698 1.72516,-5.58997 -13.50957,-10.38396 -11.54529,-3.63301 -47.34372,-4.73109 -60.84607,-1.8664 -13.86682,2.94203 -13.86161,15.01553 0.008,18.81421 10.96223,3.00237 15.28858,3.43879 36.49005,3.68095 15.03729,0.17176 21.25471,-0.58559 27.26963,-3.32171 z m 237.32438,-10.06199 c 25.18856,-2.88581 33.55792,-8.24424 28.88737,-18.49498 -3.32226,-7.29159 -20.06733,-11.28178 -46.28415,-11.02907 -34.70703,0.33454 -49.49235,5.09676 -49.49235,15.94103 0,7.11893 6.79789,11.1135 22.93809,13.47885 15.86625,2.3252 24.38858,2.34539 43.95104,0.10417 z m -163.42021,-8.27851 c 15.44512,-5.41356 13.91221,-12.02946 -4.44664,-19.19148 -14.93915,-5.82794 -54.34329,-6.42093 -69.85329,-1.05121 -11.4928,3.97893 -15.26053,9.88353 -9.15533,14.34777 12.35328,9.03294 64.07837,12.68657 83.45526,5.89492 z m 70.18654,-13.28161 c 10.31759,-2.598 19.0675,-10.69534 14.60652,-13.51715 -4.50882,-2.85207 -21.02655,-7.31389 -36.5338,-9.86862 -18.02689,-2.96983 -32.58535,-0.17324 -41.25419,7.92467 -9.69457,9.0561 -8.86254,9.86856 14.95817,14.60623 16.52071,3.28577 37.11914,3.65092 48.2233,0.85487 z"
       id="path27"
       transform="scale(0.26458333)" /></g></svg>
